<svg width="128" height="160" viewBox="0 0 128 160" fill="none" xmlns="http://www.w3.org/2000/svg">
<path d="M0.666667 6C0.666667 8.94552 3.05448 11.3333 6 11.3333C8.94552 11.3333 11.3333 8.94552 11.3333 6C11.3333 3.05448 8.94552 0.666667 6 0.666667C3.05448 0.666667 0.666667 3.05448 0.666667 6ZM116.667 154C116.667 156.946 119.054 159.333 122 159.333C124.946 159.333 127.333 156.946 127.333 154C127.333 151.054 124.946 148.667 122 148.667C119.054 148.667 116.667 151.054 116.667 154ZM5.45675 6.83957L68.8893 47.8841L69.9758 46.205L6.54325 5.16043L5.45675 6.83957ZM73 55.4403V144H75V55.4403H73ZM84 155H122V153H84V155ZM73 144C73 150.075 77.9249 155 84 155V153C79.0294 153 75 148.971 75 144H73ZM68.8893 47.8841C71.4524 49.5426 73 52.3874 73 55.4403H75C75 51.709 73.1085 48.232 69.9758 46.205L68.8893 47.8841Z" fill="url(#paint0_linear_62_732)"/>
<defs>
<linearGradient id="paint0_linear_62_732" x1="6" y1="6" x2="149.714" y2="118.641" gradientUnits="userSpaceOnUse">
<stop stop-color="#75F1F5"/>
<stop offset="1" stop-color="#418BD8"/>
</linearGradient>
</defs>
</svg>
