<svg width="626" height="290" viewBox="0 0 626 290" fill="none" xmlns="http://www.w3.org/2000/svg">
<path d="M561.667 6C561.667 8.94552 564.055 11.3333 567 11.3333C569.945 11.3333 572.333 8.94552 572.333 6C572.333 3.05448 569.945 0.666667 567 0.666667C564.055 0.666667 561.667 3.05448 561.667 6ZM107.667 284C107.667 286.946 110.054 289.333 113 289.333C115.946 289.333 118.333 286.946 118.333 284C118.333 281.054 115.946 278.667 113 278.667C110.054 278.667 107.667 281.054 107.667 284ZM50.4501 277.807L49.5255 278.188L50.4501 277.807ZM2.68544 161.807L1.76076 162.188L2.68544 161.807ZM621.675 55.0194L622.343 54.2748L621.675 55.0194ZM566.332 6.74457L621.008 55.7639L622.343 54.2748L567.668 5.25543L566.332 6.74457ZM624 62.4651V138H626V62.4651H624ZM615 147H11.9323V149H615V147ZM1.76076 162.188L49.5255 278.188L51.3748 277.427L3.61012 161.427L1.76076 162.188ZM59.6969 285H113V283H59.6969V285ZM49.5255 278.188C51.2226 282.31 55.2395 285 59.6969 285V283C56.0499 283 52.7634 280.799 51.3748 277.427L49.5255 278.188ZM11.9323 147C4.10263 147 -1.22037 154.948 1.76076 162.188L3.61012 161.427C1.17101 155.503 5.52619 149 11.9323 149V147ZM624 138C624 142.971 619.971 147 615 147V149C621.075 149 626 144.075 626 138H624ZM621.008 55.7639C622.912 57.4711 624 59.9077 624 62.4651H626C626 59.3394 624.67 56.3613 622.343 54.2748L621.008 55.7639Z" fill="url(#paint0_linear_62_731)"/>
<defs>
<linearGradient id="paint0_linear_62_731" x1="-3" y1="6" x2="202.799" y2="470.898" gradientUnits="userSpaceOnUse">
<stop stop-color="#75F1F5"/>
<stop offset="1" stop-color="#418BD8"/>
</linearGradient>
</defs>
</svg>
