<svg width="64" height="64" viewBox="0 0 64 64" fill="none" xmlns="http://www.w3.org/2000/svg">
<rect width="64" height="64" rx="32" fill="white"/>
<path d="M18.666 29.3333C18.666 28.626 18.947 27.9477 19.4471 27.4476C19.9472 26.9475 20.6254 26.6666 21.3327 26.6666H42.6661C43.3734 26.6666 44.0517 26.9475 44.5518 27.4476C45.0519 27.9477 45.3328 28.626 45.3328 29.3333V38.6666C45.3328 39.3738 45.0519 40.0521 44.5518 40.5522C44.0517 41.0523 43.3734 41.3333 42.6661 41.3333H37.5088C37.0483 41.3333 36.5956 41.214 36.1949 40.9871C35.7942 40.7603 35.459 40.4335 35.2221 40.0386L33.1421 36.5719C33.0235 36.3748 32.856 36.2117 32.6558 36.0984C32.4556 35.9852 32.2294 35.9257 31.9994 35.9257C31.7694 35.9257 31.5433 35.9852 31.343 36.0984C31.1428 36.2117 30.9753 36.3748 30.8567 36.5719L28.7767 40.0386C28.5398 40.4335 28.2047 40.7603 27.8039 40.9871C27.4032 41.214 26.9506 41.3333 26.4901 41.3333H21.3327C20.6254 41.3333 19.9472 41.0523 19.4471 40.5522C18.947 40.0521 18.666 39.3738 18.666 38.6666V29.3333ZM21.0834 25.0413C21.5703 24.311 22.2299 23.7122 23.0037 23.2979C23.7776 22.8837 24.6417 22.6668 25.5194 22.6666H38.4768C39.3547 22.6666 40.2191 22.8834 40.9932 23.2976C41.7672 23.7119 42.4271 24.3108 42.9141 25.0413L43.9995 26.6666H19.9994L21.0834 25.0413Z" stroke="url(#paint0_linear_62_717)" stroke-width="2.66667" stroke-linecap="round" stroke-linejoin="round"/>
<defs>
<linearGradient id="paint0_linear_62_717" x1="18.666" y1="22.6666" x2="36.2051" y2="47.7226" gradientUnits="userSpaceOnUse">
<stop stop-color="#75F1F5"/>
<stop offset="1" stop-color="#418BD8"/>
</linearGradient>
</defs>
</svg>
