<svg width="728" height="736" viewBox="0 0 728 736" fill="none" xmlns="http://www.w3.org/2000/svg">
<path fill-rule="evenodd" clip-rule="evenodd" d="M20 13C8.9543 13 0 21.9543 0 33V594C0 605.046 8.9543 614 20 614H281C292.046 614 301 605.046 301 594V334C301 322.954 309.954 314 321 314H581C592.046 314 601 305.046 601 294V33C601 21.9543 592.046 13 581 13H20Z" fill="url(#paint0_linear_85_678)"/>
<path d="M497.25 145.25H466.125C463.374 145.25 460.735 144.157 458.789 142.211C456.843 140.266 455.75 137.627 455.75 134.875C455.75 132.123 456.843 129.484 458.789 127.539C460.735 125.593 463.374 124.5 466.125 124.5H497.25C500.002 124.5 502.641 125.593 504.587 127.539C506.532 129.484 507.625 132.123 507.625 134.875C507.625 137.627 506.532 140.266 504.587 142.211C502.641 144.157 500.002 145.25 497.25 145.25ZM403.875 124.5H393.5V114.125C393.5 111.373 392.407 108.734 390.462 106.789C388.516 104.843 385.877 103.75 383.125 103.75C380.374 103.75 377.735 104.843 375.789 106.789C373.843 108.734 372.75 111.373 372.75 114.125V124.5H362.375C359.624 124.5 356.985 125.593 355.039 127.539C353.093 129.484 352 132.123 352 134.875C352 137.627 353.093 140.266 355.039 142.211C356.985 144.157 359.624 145.25 362.375 145.25H372.75V155.625C372.75 158.377 373.843 161.016 375.789 162.961C377.735 164.907 380.374 166 383.125 166C385.877 166 388.516 164.907 390.462 162.961C392.407 161.016 393.5 158.377 393.5 155.625V145.25H403.875C406.627 145.25 409.266 144.157 411.212 142.211C413.157 140.266 414.25 137.627 414.25 134.875C414.25 132.123 413.157 129.484 411.212 127.539C409.266 125.593 406.627 124.5 403.875 124.5ZM582.17 260.218C578.26 265.802 573.174 270.461 567.271 273.87C561.367 277.278 554.789 279.352 547.999 279.947C541.208 280.541 534.37 279.642 527.964 277.311C521.558 274.98 515.74 271.275 510.919 266.456C510.764 266.3 510.608 266.145 510.465 265.976L458.967 207.5H410.982L359.535 265.976L359.081 266.456C350.317 275.201 338.444 280.116 326.063 280.125C319.247 280.122 312.514 278.628 306.338 275.745C300.161 272.863 294.691 268.664 290.31 263.442C285.93 258.22 282.746 252.102 280.983 245.518C279.219 238.934 278.918 232.044 280.102 225.332C280.095 225.272 280.095 225.211 280.102 225.15L301.331 116.096C304.491 98.1095 313.889 81.8116 327.873 70.0664C341.857 58.3213 359.533 51.8802 377.795 51.875H492.063C510.27 51.904 527.892 58.3083 541.869 69.9758C555.846 81.6433 565.296 97.8373 568.578 115.746V115.98L589.808 225.138C589.815 225.198 589.815 225.259 589.808 225.319C590.907 231.352 590.798 237.543 589.486 243.534C588.175 249.525 585.688 255.195 582.17 260.218ZM492.063 186.75C507.197 186.75 521.711 180.738 532.412 170.037C543.113 159.335 549.125 144.821 549.125 129.688C549.125 114.554 543.113 100.04 532.412 89.3382C521.711 78.6369 507.197 72.625 492.063 72.625H377.795C364.398 72.637 351.434 77.3733 341.184 86.0006C330.934 94.6279 324.055 106.594 321.757 119.792V119.961L300.514 229.015C299.575 234.422 300.375 239.987 302.799 244.91C305.223 249.833 309.146 253.861 314.003 256.413C318.861 258.966 324.403 259.913 329.832 259.116C335.262 258.32 340.299 255.823 344.219 251.983L398.584 190.265C399.557 189.16 400.755 188.276 402.096 187.67C403.438 187.064 404.893 186.75 406.365 186.75H492.063ZM569.486 229.015L558.152 170.656C551.18 181.913 541.452 191.204 529.887 197.652C518.322 204.099 505.303 207.489 492.063 207.5H486.616L525.782 251.996C528.735 254.868 532.326 256.999 536.263 258.214C540.199 259.429 544.367 259.694 548.425 258.986C555.185 257.793 561.197 253.968 565.143 248.35C569.088 242.732 570.645 235.779 569.473 229.015H569.486Z" fill="#75F1F5" fill-opacity="0.3"/>
<rect x="324" y="332" width="404" height="404" rx="20" fill="url(#paint1_linear_85_678)"/>
<path d="M171.333 516.667H128.666V559.333H171.333V516.667ZM88.666 452.667L112.666 495.333H64.666L88.666 452.667ZM149.999 495.333C155.657 495.333 161.084 493.086 165.084 489.085C169.085 485.084 171.333 479.658 171.333 474C171.333 468.342 169.085 462.916 165.084 458.915C161.084 454.914 155.657 452.667 149.999 452.667C144.341 452.667 138.915 454.914 134.914 458.915C130.914 462.916 128.666 468.342 128.666 474C128.666 479.658 130.914 485.084 134.914 489.085C138.915 493.086 144.341 495.333 149.999 495.333Z" stroke="#75F1F5" stroke-opacity="0.3" stroke-width="10.6667" stroke-linejoin="round"/>
<path d="M64.666 516.667L107.333 559.333M107.333 516.667L64.666 559.333" stroke="#75F1F5" stroke-opacity="0.3" stroke-width="10.6667" stroke-linecap="round" stroke-linejoin="round"/>
<defs>
<linearGradient id="paint0_linear_85_678" x1="132.574" y1="-57.7059" x2="371.206" y2="790.765" gradientUnits="userSpaceOnUse">
<stop stop-color="#62F1F5"/>
<stop offset="1" stop-color="#701D94"/>
</linearGradient>
<linearGradient id="paint1_linear_85_678" x1="324" y1="332" x2="728" y2="736" gradientUnits="userSpaceOnUse">
<stop stop-color="#F57594"/>
<stop offset="1" stop-color="#AD2727"/>
</linearGradient>
</defs>
</svg>
