<svg width="141" height="48" viewBox="0 0 141 48" fill="none" xmlns="http://www.w3.org/2000/svg">
<path d="M0 47.4684V20.8861H7.89873L15.1139 44.7342H15.7215V20.8861H19.7848V47.4684H11.8861L4.67089 23.5823H4.06329V47.4684H0Z" fill="white"/>
<path d="M34.025 48C32.1263 48 30.4681 47.6076 29.0503 46.8228C27.6326 46.0127 26.5187 44.8861 25.7086 43.443C24.9238 41.9747 24.5313 40.2785 24.5313 38.3544V37.8987C24.5313 35.9494 24.9238 34.2532 25.7086 32.8101C26.4934 31.3418 27.582 30.2152 28.9744 29.4304C30.3921 28.6203 32.025 28.2152 33.8731 28.2152C35.6706 28.2152 37.2402 28.6203 38.582 29.4304C39.9491 30.2152 41.0124 31.3165 41.7719 32.7342C42.5314 34.1519 42.9111 35.8101 42.9111 37.7089V39.1899H28.5187C28.5693 40.8354 29.1136 42.1519 30.1516 43.1392C31.2149 44.1013 32.5313 44.5823 34.101 44.5823C35.5693 44.5823 36.6706 44.2532 37.4048 43.5949C38.1643 42.9367 38.7465 42.1772 39.1516 41.3165L42.3794 42.9873C42.025 43.6962 41.506 44.443 40.8225 45.2278C40.1643 46.0127 39.2908 46.6709 38.2022 47.2025C37.1136 47.7342 35.7212 48 34.025 48ZM28.5567 36.1899H38.9238C38.8225 34.7721 38.3162 33.6709 37.4048 32.8861C36.4934 32.0759 35.3035 31.6709 33.8351 31.6709C32.3668 31.6709 31.1643 32.0759 30.2276 32.8861C29.3162 33.6709 28.7592 34.7721 28.5567 36.1899Z" fill="white"/>
<path d="M56.3915 48C54.5181 48 52.8472 47.6203 51.3789 46.8608C49.9358 46.0759 48.7966 44.962 47.9611 43.519C47.1257 42.0759 46.708 40.3671 46.708 38.3924V37.8228C46.708 35.8481 47.1257 34.1519 47.9611 32.7342C48.7966 31.2911 49.9358 30.1772 51.3789 29.3924C52.8472 28.6076 54.5181 28.2152 56.3915 28.2152C58.2649 28.2152 59.9358 28.6076 61.4042 29.3924C62.8725 30.1772 64.0244 31.2911 64.8599 32.7342C65.6953 34.1519 66.113 35.8481 66.113 37.8228V38.3924C66.113 40.3671 65.6953 42.0759 64.8599 43.519C64.0244 44.962 62.8725 46.0759 61.4042 46.8608C59.9358 47.6203 58.2649 48 56.3915 48ZM56.3915 44.5063C58.113 44.5063 59.5054 43.962 60.5687 42.8734C61.6573 41.7595 62.2016 40.2278 62.2016 38.2785V37.9367C62.2016 35.9873 61.67 34.4683 60.6067 33.3797C59.5434 32.2658 58.1383 31.7089 56.3915 31.7089C54.6953 31.7089 53.3029 32.2658 52.2143 33.3797C51.151 34.4683 50.6194 35.9873 50.6194 37.9367V38.2785C50.6194 40.2278 51.151 41.7595 52.2143 42.8734C53.3029 43.962 54.6953 44.5063 56.3915 44.5063Z" fill="white"/>
<path d="M76.2991 47.4684L68.8941 20.8861H73.1472L79.6029 44.8861H80.0966L86.5143 20.8861H90.7675L83.4004 47.4684H76.2991Z" fill="white"/>
<path d="M94.3804 47.4684V20.8861H105.545C107.191 20.8861 108.634 21.1772 109.874 21.7595C111.14 22.3165 112.115 23.1266 112.798 24.1899C113.507 25.2532 113.861 26.519 113.861 27.9873V28.4051C113.861 30.0759 113.456 31.4177 112.646 32.4304C111.861 33.4177 110.899 34.1139 109.76 34.519V35.1266C110.722 35.1772 111.494 35.5063 112.077 36.1139C112.659 36.6962 112.95 37.5443 112.95 38.6582V47.4684H108.811V39.2278C108.811 38.5443 108.634 38 108.279 37.5949C107.925 37.1899 107.355 36.9873 106.57 36.9873H98.4817V47.4684H94.3804ZM98.4817 33.2658H105.089C106.558 33.2658 107.697 32.8987 108.507 32.1646C109.317 31.4051 109.722 30.3797 109.722 29.0886V28.7848C109.722 27.4937 109.317 26.481 108.507 25.7468C107.722 24.9873 106.583 24.6076 105.089 24.6076H98.4817V33.2658Z" fill="white"/>
<path fill-rule="evenodd" clip-rule="evenodd" d="M132.676 2.04605C132.676 0.916048 131.76 0 130.63 0H117.945C116.815 0 115.899 0.916048 115.899 2.04605V14.7316C115.899 15.8616 116.815 16.7776 117.945 16.7776H120.4C121.53 16.7776 122.446 15.8616 122.446 14.7316V8.59341C122.446 7.46341 123.362 6.54736 124.492 6.54736H130.63C131.76 6.54736 132.676 5.63131 132.676 4.50131V2.04605Z" fill="#AD2727"/>
<path d="M124.083 9.82104C124.083 8.69104 124.999 7.77499 126.129 7.77499H137.996C139.126 7.77499 140.042 8.69104 140.042 9.82104V21.6881C140.042 22.8181 139.126 23.7342 137.996 23.7342H126.129C124.999 23.7342 124.083 22.8181 124.083 21.6881V9.82104Z" fill="url(#paint0_linear_62_640)"/>
<defs>
<linearGradient id="paint0_linear_62_640" x1="30.8916" y1="-5.64706" x2="37.876" y2="66.8047" gradientUnits="userSpaceOnUse">
<stop stop-color="#62F1F5"/>
<stop offset="1" stop-color="#701D94"/>
</linearGradient>
</defs>
</svg>
