<svg width="24" height="24" viewBox="0 0 24 24" fill="none" xmlns="http://www.w3.org/2000/svg">
<rect width="24" height="24" rx="12" fill="#101D28"/>
<path d="M9.73268 19L8.46602 16.8667L6.06602 16.3333L6.29935 13.8667L4.66602 12L6.29935 10.1333L6.06602 7.66667L8.46602 7.13333L9.73268 5L11.9993 5.96667L14.266 5L15.5327 7.13333L17.9327 7.66667L17.6993 10.1333L19.3327 12L17.6993 13.8667L17.9327 16.3333L15.5327 16.8667L14.266 19L11.9993 18.0333L9.73268 19ZM11.2993 14.3667L15.066 10.6L14.1327 9.63333L11.2993 12.4667L9.86602 11.0667L8.93268 12L11.2993 14.3667Z" fill="white"/>
</svg>
