<svg width="48" height="48" viewBox="0 0 48 48" fill="none" xmlns="http://www.w3.org/2000/svg">
<path d="M4 20C4 18.9391 4.42143 17.9217 5.17157 17.1716C5.92172 16.4214 6.93913 16 8 16H40C41.0609 16 42.0783 16.4214 42.8284 17.1716C43.5786 17.9217 44 18.9391 44 20V34C44 35.0609 43.5786 36.0783 42.8284 36.8284C42.0783 37.5786 41.0609 38 40 38H32.264C31.5733 38 30.8943 37.8211 30.2932 37.4808C29.6921 37.1405 29.1894 36.6503 28.834 36.058L25.714 30.858C25.5362 30.5623 25.2849 30.3176 24.9846 30.1478C24.6842 29.9779 24.345 29.8886 24 29.8886C23.655 29.8886 23.3158 29.9779 23.0154 30.1478C22.7151 30.3176 22.4638 30.5623 22.286 30.858L19.166 36.058C18.8106 36.6503 18.3079 37.1405 17.7068 37.4808C17.1057 37.8211 16.4267 38 15.736 38H8C6.93913 38 5.92172 37.5786 5.17157 36.8284C4.42143 36.0783 4 35.0609 4 34V20ZM7.626 13.562C8.35637 12.4666 9.34581 11.5684 10.5065 10.947C11.6673 10.3256 12.9634 10.0004 14.28 10H33.716C35.0329 10 36.3295 10.3251 37.4906 10.9465C38.6517 11.5679 39.6414 12.4663 40.372 13.562L42 16H6L7.626 13.562Z" stroke="url(#paint0_linear_62_697)" stroke-width="4" stroke-linecap="round" stroke-linejoin="round"/>
<defs>
<linearGradient id="paint0_linear_62_697" x1="12.8235" y1="6.70588" x2="20.9081" y2="47.7705" gradientUnits="userSpaceOnUse">
<stop stop-color="#62F1F5"/>
<stop offset="1" stop-color="#701D94"/>
</linearGradient>
</defs>
</svg>
